<?xml version="1.0" encoding="UTF-8"?>
<svg id="Vrstva_1" xmlns="http://www.w3.org/2000/svg" version="1.1" viewBox="0 0 581 1238">
  <!-- Generator: Adobe Illustrator 29.5.0, SVG Export Plug-In . SVG Version: 2.1.0 Build 137)  -->
  <defs>
    <style>
      .st0 {
        fill-rule: evenodd;
      }
    </style>
  </defs>
  <path class="st0" d="M287.67,95.45c-5.32,2.49-5.78,9.27-5.67,14.87,3.54,343.16-6.78,690.16,3.6,1031.77,7.01,5.76,17.07,1.57,25.05.3,57.54-13.43,114.77-25.91,172.33-39.51,14.43-2.96,29.14-6.42,43.4-10.01,6.52-1.8,15.34-2.3,19.78-7.6,6.16-302.61,3.24-610.43-.66-913.1-6.08-7.35-17.57-7.72-25.99-10.98-51.16-15.62-102.63-31.45-153.86-47-15.63-4.94-31.37-9.2-46.89-14.26-10.24-2.27-20.68-8.66-31.08-4.48Z"/>
</svg>