<?xml version="1.0" encoding="UTF-8"?>
<svg id="Vrstva_1" xmlns="http://www.w3.org/2000/svg" version="1.1" viewBox="0 0 1920 1080">
  <!-- Generator: Adobe Illustrator 29.5.0, SVG Export Plug-In . SVG Version: 2.1.0 Build 137)  -->
  <defs>
    <style>
      .st0 {
        fill-rule: evenodd;
      }
    </style>
  </defs>
  <path class="st0" d="M1121.52,521.5l-.64-2.61c16.21-10.15,29.95-32.54,45.62-44.4,25.46-19.27,50.3-40.1,77-58,18.31-12.27,36.97-22.19,56-34,14.36-8.91,30.57-22.19,48-27v-1c-56.51,21.87-106.67,54.17-155,90-19.7,14.18-36.9,34.82-59,46v-2c10.74-7.57,17.65-23.95,25-35,18.34-27.55,38.39-56.67,53.76-86.53l-.76-.47c-68.19,94.93-98.24,169.78-207.24,232.14l.36.83c96.03-29.34,249.63-42.76,294.88,67.04-60.62,40.61-148.49,51.68-208,11-25.04-15.87-38.12-40.13-71-49-15.09-4.07-35.06-1.02-53-2-5.02-.27-14.76-3.05-21-1-59.91,28.1-121.76,53.69-184,74,17.59,1.07,35.52,5.43,51,9,5.55,1.28,10.76-1.12,14-2,60.87-17.59,134.49,18.69,153,81-54.02,22.84-110.61,14.18-147-34-4.94-6.54-11.21-17.58-18-22-51.43-12.42-116.88-21.8-168-5-37.76,8.06-77.21,13.26-116,17-10.57,2.32-45.45,6.73-57,2-7.73-3.17-9.77-9.51-15-15-.15-45.2,51.22-23.98,87-32,21.84-4.9,48.38-.99,70-6,62.08-2.75,129.1-18.24,185-40,210.46-97.52,47.13-168.5,142.99-226.01,32.53-11.77,49.98,29.57,35,60-8.32,16.74-18.32,33.33-33,44-6.39,9.56-8.58,25.56-14,36-9.23,17.78-21.57,32.74-32,49,57.5-21.01,113.88-54.38,157-97,31.28-41.53,38.87-107.09,69-150,63.33-90.35,239.93-108.25,334-70-31.34,34.55-51.39,78.3-79,115-65.03,67.73-159.05,113.63-259.98,108ZM1096.5,613.5c45.55,5.1,92.48,23.31,133,43-6.73-8.25-22.01-16.93-32.4-21.5-28.48-12.53-60.11-21.02-100.6-21.5Z"/>
</svg>