<?xml version="1.0" encoding="UTF-8"?>
<svg id="Vrstva_1" xmlns="http://www.w3.org/2000/svg" version="1.1" viewBox="0 0 1920 1080">
  <!-- Generator: Adobe Illustrator 29.5.0, SVG Export Plug-In . SVG Version: 2.1.0 Build 137)  -->
  <defs>
    <style>
      .st0 {
        fill: none;
        fill-rule: evenodd;
      }
    </style>
  </defs>
  <path class="st0" d="M835.84,20.63c8.88-3.61,19.32,2.45,28.03,4.55,9.15,2.65,17.44,5.63,26.79,8.25,42.28,12.82,85.49,25.65,127.62,39.02,20.2,5.89,40.73,11.94,60.87,18.35,4.3,1.35,8.31,4.15,8.93,8.93-1.31,300.73,5.1,604.12-2.23,903.81-7.05,6.03-17.75,5.54-26.61,8.17-16.38,4.18-33.52,7.6-49.87,11.77-51.88,11.2-103.36,24-155.28,35.12-9.07,1.82-22.99,5.44-22.47-8.53-.41-339.11,0-678.22-.14-1017.33-.01-4.46.1-9.94,4.22-12.05l.14-.08Z"/>
</svg>