<?xml version="1.0" encoding="UTF-8"?>
<svg id="Vrstva_1" xmlns="http://www.w3.org/2000/svg" version="1.1" viewBox="0 0 798 906">
  <!-- Generator: Adobe Illustrator 29.5.0, SVG Export Plug-In . SVG Version: 2.1.0 Build 137)  -->
  <defs>
    <style>
      .st0 {
        fill: #fff;
        fill-rule: evenodd;
      }
    </style>
  </defs>
  <path class="st0" d="M792.04,2.54c8.38,4.12,5.48,14.28,3.92,21.65-1.76,8.8-4.31,17.7-6.64,26.31-3.05,14.17-10.98,26.34-17.36,39.1-7.81,15.81-14.62,32.47-25.04,46.89-9.45,13.27-16.72,28.1-26.11,41.24-7.21,9.99-17.16,17.7-24.2,27.87-7.27,9.91-11.99,20.65-18.71,30.7-15.58,18.77-27.35,39.23-39.01,60.46-7.89,12.02-20.6,23.43-26.84,36.22-2.68,5.71-5.47,11.4-9.2,16.61-6.16,9.55-14.92,17.15-22.38,25.68-5.65,6.57-9.88,13.39-15.52,19.32-4.32,4.73-9.18,8.91-13.61,13.5-4.03,3.99-7.7,9.7-9.14,14.54-1.71,3.64-4.27,5.99-7.52,8.75-13.7,10.51-27.36,22.1-41.54,31.8-7.61,5.58-14.68,12.23-22.58,17.36-1.29.87-1.96,2.21-1.63,3.75,2.58,16.27-21.92,17.01-32.46,21.27-5.7,1.63-3.88,8.22-9.02,10.07-6.38,2.33-15.77-1.07-18.39,7.34-4.13,5.34-12.91,1.73-18.24-.16-9.78-3.1-21.32-.67-29.89,4.86-7.17,4.41-23.74,22.51-21.13,31.3,1.52,4.24,7.9,6.43,12.93,9.21,12.07,6.16,19.72,19.65,13.96,32.76-3.5,11.24-18.48,15.48-19.51,27.73-1.15,12.49,11.09,18.77,21.25,22.09,9.95,4.08,20.23,7.48,28.95,14.36,12.47,9.26,21,23.06,34.06,31.57,9.15,5.72,18.73,10.62,28.05,15.97,8.66,4.51,18.6,5.2,28.27,5.61,16.96.79,21.09,10.62,40.25,4.85,18.93-8.55,39.46-10.61,60.28-11.65,12.05.11,22.2-5.93,33.93-7.98,10.25-1.59,20.37-.52,29.45,4.17,4.06,1.91,8.19,3.26,10.06,6.52,4.67,14.38-19.35,16.82-26.18,25.51-7.84,9.38-11.09,21.66-18.23,31.59-7.69,12.76-12.31,22.1-28.49,24.13-9.15,2.64-15.91,13.25-17.77,22.19-.95,8.8-1.47,12.19-9.48,17.52-6.1,3.98.78,5.73-4.89,11.55-1.09,1.26-2.31,2.21-3.67,3.05-6.05,3.14-12.72,6.76-19.62,9.05-6.51,1.67-8,3.92-12.19,8.32-2.16,1.71-7.54,1.96-10.9,2.3-6.54.77-15.32.4-21.97,1.85-.22.15-.31.33-.31.58.17,1.55,2.03,4.26-1.12,5.83-3.23,1.85-7.66,3.05-11.44,3.86-8.88,2.01-17.31,4.79-26.46,6.44-4.2.88-9.32,1.4-12.73,3.9-8.94,8.13-13.71,5.4-24.3,8.31-19.81,6.43-41.1-1.98-61.38-1.28-26.75,1.36-53.65,4.9-80.19-.01-9.68-.89-18.57-2.77-27.91-4.29-19.8-.33-41.24.21-60.95-.02-12.64-.23-26.87,3.58-39.01.73-3.27-.9-6.64-1.33-10.04-1.39-1.73-.07-3.31-.09-4.47-.14-1.83-.07-2.38-.4-2-.86.57-.95,6.2-2.48,4.5-4.25-2.76-.65-6.35.73-9.4,1.22-5.28,1.28-10.8,1.22-15.95-.03-3.14-.91-9.84-3.37-5.85-6.84,1.05-1.94,2.44-3.93,4.06-5.69,2.52-2.12-7.24-2.49-8.65-3.08-9.5-2.25-18.23-3.46-27.65-4.58-7.72-1.52-14.56-6.9-21.78-9.43-8.37-2.86-16.57-6.15-23.24-12.17-7.2-5.5-17.11-10.54-18.34-20.5-.64-9.41,2.24-19.42,7.56-26.76,3.53-4.58,9.17-6.25,14.04-9.01,5.09-2.7,9.25-8.13,15.32-8.35,10.23.79,16.81-8.1,24.08-14.03,11.14-9.31,21.45-21.01,36.64-23.29,18.61-3.1,13.06-21.8,12.37-35.47-1.15-19.4,2.59-36.39,21.81-44.01,11.18-5.58,22.77-11.01,34.52-15.19,11.82-4.11,30.3-9.16,27.32-25.31-1.64-9.2-10.59-13.09-16.16-19.91-7.74-9.31-7.52-24.17,1.59-32.5,18.27-16.64,62.82-17.68,87.54-19,11.93-.59,25.55,4.35,36.77-.63,10.35-7.16,14.62-21.86,21.15-32.6,10.66-17.6,3.98-32.3-6.45-47.48-4.54-7.78,3.94-14.72,2.9-22.88-1.16-11.87-.33-25.6,8.73-34.42,6.98-10.53,11.45-21.15,18.11-32.39,7.49-13.44,15.39-26.96,23.64-39.96,3.61-5.17,7.46-8.5,11.15-13.09,3.87-4.71,6.97-10.83,10.04-16.22,7.89-15.06,16.87-28.58,25.93-42.79,16.19-27.76,37.59-52.42,59.71-75.63,8.32-7.91,15.15-16.61,22.9-24.9,11.58-10.15,21.24-21.93,32.93-32.06,22.06-19.9,43.12-41.08,66.66-59.17,19.99-14.98,41.61-26.91,63.5-38.8,26.72-15.04,96.31-49.04,123.91-39.29l.13.07Z"/>
</svg>